<?xml version="1.0" encoding="utf-8"?>
<!-- Generator: Adobe Illustrator 19.2.1, SVG Export Plug-In . SVG Version: 6.00 Build 0)  -->
<svg version="1.1" id="Layer_1" xmlns="http://www.w3.org/2000/svg" xmlns:xlink="http://www.w3.org/1999/xlink" x="0px" y="0px"
	 viewBox="0 0 103.5 19.1" style="enable-background:new 0 0 103.5 19.1;" xml:space="preserve">
<style type="text/css">
	.st0{fill:#095395;}
	.st1{font-family:'Antipasto';}
	.st2{font-size:18px;}
</style>
<g>
	<g id="XMLID_62_">
		<g id="XMLID_63_">
			<path id="XMLID_67_" class="st0" d="M1.8,5.4h16.6c0.4,0,0.7-0.3,0.7-0.7c0-0.4-0.3-0.7-0.7-0.7H1.8c-0.4,0-0.7,0.3-0.7,0.7
				C1.1,5.1,1.4,5.4,1.8,5.4z"/>
			<path id="XMLID_65_" class="st0" d="M1.8,10.5h16.6c0.4,0,0.7-0.3,0.7-0.7s-0.3-0.7-0.7-0.7H1.8c-0.4,0-0.7,0.3-0.7,0.7
				S1.4,10.5,1.8,10.5z"/>
			<path id="XMLID_64_" class="st0" d="M1.8,15.6h16.6c0.4,0,0.7-0.3,0.7-0.7c0-0.4-0.3-0.7-0.7-0.7H1.8c-0.4,0-0.7,0.3-0.7,0.7
				C1.1,15.3,1.4,15.6,1.8,15.6z"/>
		</g>
	</g>
	<g id="XMLID_60_">
		<text transform="matrix(1 0 0 1 36.9561 14.9579)" class="st0 st1 st2">Guayaquil</text>
	</g>
</g>
</svg>
