<?xml version="1.0" encoding="utf-8"?>
<!-- Generator: Adobe Illustrator 19.2.1, SVG Export Plug-In . SVG Version: 6.00 Build 0)  -->
<svg version="1.1" id="Layer_1" xmlns="http://www.w3.org/2000/svg" xmlns:xlink="http://www.w3.org/1999/xlink" x="0px" y="0px"
	 viewBox="0 0 222.7 54.2" style="enable-background:new 0 0 222.7 54.2;" xml:space="preserve">
<style type="text/css">
	.st0{fill:#095495;}
	.st1{font-family:'Antipasto';}
	.st2{font-size:18px;}
	.st3{font-size:10px;}
</style>
<g>
	<text id="XMLID_656_" transform="matrix(1 0 0 1 84.1146 27.2433)"><tspan x="0" y="0" class="st0 st1 st2">Metrovia</tspan><tspan x="0" y="12" class="st0 st1 st3">Troncales, alimentadores y paradas </tspan></text>
	<path id="XMLID_3382_" class="st0" d="M57.1,15.1c-1.3-2.8-6.5-4-11.7-4s-10.4,1.2-11.7,4c-0.9,1-1.4,7.3-1.4,11.7v11.6
		c0,0.6,0.5,1.1,1.1,1.1h1.1v1.4v0.7V42c0,0.8,0.6,1.4,1.4,1.4h1.3c0.8,0,1.4-0.6,1.4-1.4v-0.5v-0.7v-1.4h6.9h6.9v1.4v0.7V42
		c0,0.8,0.6,1.4,1.4,1.4h1.3c0.8,0,1.4-0.6,1.4-1.4v-0.5v-0.7v-1.4h1.1c0.6,0,1.1-0.5,1.1-1.1V26.8C58.5,22.4,58,16.1,57.1,15.1z
		 M40.2,13.5h2.9h1.5h0.8h0.8h1.5h2.9c0.5,0,0.8,0.4,0.8,0.8c0,0.5-0.4,0.8-0.8,0.8h-2.9h-1.5h-0.8h-0.8h-1.5h-2.9
		c-0.5,0-0.8-0.4-0.8-0.8C39.4,13.9,39.7,13.5,40.2,13.5z M36.4,35.3c-1.1,0-2-0.9-2-2c0-1.1,0.9-2,2-2c1.1,0,2,0.9,2,2
		C38.5,34.4,37.6,35.3,36.4,35.3z M45.4,26.7h-9.3c-0.9,0-1.6-0.8-1.5-1.7l0.5-6.8c0.1-0.8,0.7-1.4,1.5-1.4h8.8h8.8
		c0.8,0,1.5,0.6,1.5,1.4l0.5,6.8c0.1,0.9-0.6,1.7-1.5,1.7H45.4z M54.3,35.3c-1.1,0-2-0.9-2-2c0-1.1,0.9-2,2-2s2,0.9,2,2
		C56.3,34.4,55.4,35.3,54.3,35.3z"/>
	<rect id="XMLID_89_" x="2.4" y="0.2" class="st0" width="4.8" height="54"/>
</g>
</svg>
