<?xml version="1.0" encoding="utf-8"?>
<!-- Generator: Adobe Illustrator 19.0.0, SVG Export Plug-In . SVG Version: 6.00 Build 0)  -->
<svg version="1.1" id="Capa_1" xmlns="http://www.w3.org/2000/svg" xmlns:xlink="http://www.w3.org/1999/xlink" x="0px" y="0px"
	 viewBox="0 0 70 60" style="enable-background:new 0 0 70 60;" xml:space="preserve">
<style type="text/css">
	.st0{display:none;}
	.st1{display:inline;fill:#095495;}
	.st2{display:inline;fill:#777777;}
	.st3{display:inline;}
	.st4{fill:#3FAC58;}
	.st5{display:inline;fill:#3FAC58;}
	.st6{fill:#DAD355;}
	.st7{fill:#095495;}
	.st8{fill:#FFFFFF;}
</style>
<g id="XMLID_230_" class="st0">
	<path id="XMLID_402_" class="st1" d="M60.7,17.8c-1.3-2.8-6.5-4-11.7-4s-10.4,1.2-11.7,4c-0.9,1-1.4,7.3-1.4,11.7v11.6
		c0,0.6,0.5,1.1,1.1,1.1H38v1.4v0.7v0.5c0,0.8,0.6,1.4,1.4,1.4h1.3c0.8,0,1.4-0.6,1.4-1.4v-0.5v-0.7v-1.4H49h6.9v1.4v0.7v0.5
		c0,0.8,0.6,1.4,1.4,1.4h1.3c0.8,0,1.4-0.6,1.4-1.4v-0.5v-0.7v-1.4h1.1c0.6,0,1.1-0.5,1.1-1.1V29.5C62.2,25.1,61.6,18.9,60.7,17.8z
		 M43.8,16.3h2.9h1.5H49h0.8h1.5h2.9c0.5,0,0.8,0.4,0.8,0.8s-0.4,0.8-0.8,0.8h-2.9h-1.5H49h-0.8h-1.5h-2.9c-0.5,0-0.8-0.4-0.8-0.8
		S43.4,16.3,43.8,16.3z M40.1,38.1c-1.1,0-2-0.9-2-2c0-1.1,0.9-2,2-2c1.1,0,2,0.9,2,2C42.1,37.2,41.2,38.1,40.1,38.1z M49,29.4h-9.3
		c-0.9,0-1.6-0.8-1.5-1.7l0.5-6.8c0.1-0.8,0.7-1.4,1.5-1.4H49h8.8c0.8,0,1.5,0.6,1.5,1.4l0.5,6.8c0.1,0.9-0.6,1.7-1.5,1.7H49z
		 M57.9,38.1c-1.1,0-2-0.9-2-2c0-1.1,0.9-2,2-2c1.1,0,2,0.9,2,2C60,37.2,59,38.1,57.9,38.1z"/>
	<rect id="XMLID_401_" x="6" y="3" class="st1" width="4.8" height="54"/>
</g>
<g id="XMLID_453_" class="st0">
	<path id="XMLID_342_" class="st2" d="M60.8,17.8c-1.3-2.8-6.5-4-11.7-4s-10.4,1.2-11.7,4c-0.9,1-1.4,7.3-1.4,11.7v11.6
		c0,0.6,0.5,1.1,1.1,1.1H38v1.4v0.7v0.5c0,0.8,0.6,1.4,1.4,1.4h1.3c0.8,0,1.4-0.6,1.4-1.4v-0.5v-0.7v-1.4H49h6.9v1.4v0.7v0.5
		c0,0.8,0.6,1.4,1.4,1.4h1.3c0.8,0,1.4-0.6,1.4-1.4v-0.5v-0.7v-1.4h1.1c0.6,0,1.1-0.5,1.1-1.1V29.5C62.2,25.1,61.7,18.9,60.8,17.8z
		 M43.8,16.3h2.9h1.5H49h0.8h1.5h2.9c0.5,0,0.8,0.4,0.8,0.8c0,0.5-0.4,0.8-0.8,0.8h-2.9h-1.5H49h-0.8h-1.5h-2.9
		c-0.5,0-0.8-0.4-0.8-0.8C43,16.7,43.4,16.3,43.8,16.3z M40.1,38.1c-1.1,0-2-0.9-2-2s0.9-2,2-2c1.1,0,2,0.9,2,2S41.2,38.1,40.1,38.1
		z M49,29.4h-9.3c-0.9,0-1.6-0.8-1.5-1.7l0.5-6.8c0.1-0.8,0.7-1.4,1.5-1.4H49h8.8c0.8,0,1.5,0.6,1.5,1.4l0.5,6.8
		c0.1,0.9-0.6,1.7-1.5,1.7H49z M58,38.1c-1.1,0-2-0.9-2-2s0.9-2,2-2c1.1,0,2,0.9,2,2S59.1,38.1,58,38.1z"/>
	<rect id="XMLID_341_" x="6" y="3" class="st2" width="4.8" height="54"/>
</g>
<g id="XMLID_454_" class="st0">
	<g id="XMLID_325_" class="st3">
		<path id="XMLID_326_" class="st4" d="M56.7,16.8h-0.5h-1.9H52c0-1.7-1.3-3-3-3c-1.7,0-3,1.3-3,3h-2.3h-1.9h-0.5
			c-2.9,0-5.3,2.4-5.3,5.3v18.9c0,2.9,2.4,5.3,5.3,5.3h0.5h1.9H49h5.3h1.9h0.5c2.9,0,5.3-2.4,5.3-5.3V22
			C62,19.1,59.6,16.8,56.7,16.8z M40,40.2c-1.1,0-2-0.9-2-2s0.9-2,2-2c1.1,0,2,0.9,2,2S41.1,40.2,40,40.2z M48.4,28.4
			c0,1.1-0.9,2-2,2h-6.2c-1.1,0-2-0.9-2-2v-4.6c0-1.1,0.9-2,2-2h6.2c1.1,0,2,0.9,2,2V28.4z M48.2,20.4h-1.5h-2.9
			c-0.5,0-0.8-0.4-0.8-0.8c0-0.5,0.4-0.8,0.8-0.8h2.9h1.5H49h0.8h1.5h2.9c0.5,0,0.8,0.4,0.8,0.8c0,0.5-0.4,0.8-0.8,0.8h-2.9h-1.5H49
			H48.2z M51.7,30.4c-1.1,0-2-0.9-2-2v-4.6c0-1.1,0.9-2,2-2h6.2c1.1,0,2,0.9,2,2v4.6c0,1.1-0.9,2-2,2H51.7z M58.1,40.2
			c-1.1,0-2-0.9-2-2s0.9-2,2-2s2,0.9,2,2S59.2,40.2,58.1,40.2z"/>
	</g>
	<rect id="XMLID_324_" x="6" y="3" class="st5" width="4.8" height="54"/>
</g>
<g id="XMLID_455_">
	<g id="XMLID_273_">
		<path id="XMLID_287_" class="st6" d="M61,27.8h-0.9l-2.2-5.7c-0.4-1.1-1.5-1.9-2.7-1.9h-3.4v-1.6c0-0.4-0.3-0.7-0.7-0.7H49h-1.9
			c-0.4,0-0.7,0.3-0.7,0.7v1.6h-3.4c-1.2,0-2.3,0.7-2.7,1.9l-2.2,5.7H37c-0.8,0-1.5,0.7-1.5,1.5v7.3c0,0.8,0.7,1.5,1.5,1.5h0.9v1.4
			v0.6v0.6c0,0.7,0.6,1.4,1.4,1.4h1.4c0.7,0,1.4-0.6,1.4-1.4v-0.6v-0.6v-1.4h0.2h5.2H49h1.5h5.2H56v1.4v0.6v0.6
			c0,0.7,0.6,1.4,1.4,1.4h1.4c0.7,0,1.4-0.6,1.4-1.4v-0.6v-0.6v-1.4H61c0.8,0,1.5-0.7,1.5-1.5v-7.3C62.6,28.5,61.9,27.8,61,27.8z
			 M40,33.9c-1.1,0-2.1-0.9-2.1-2.1c0-1.1,0.9-2.1,2.1-2.1c1.1,0,2.1,0.9,2.1,2.1C42.1,33,41.1,33.9,40,33.9z M49,27.8h-7.9
			c-0.6,0-1-0.6-0.8-1.1l1.3-3.5c0.2-0.6,0.7-0.9,1.3-0.9H49h6.1c0.6,0,1.1,0.4,1.3,0.9l1.3,3.5c0.2,0.5-0.2,1.1-0.8,1.1H49z
			 M58.1,33.9c-1.1,0-2.1-0.9-2.1-2.1c0-1.1,0.9-2.1,2.1-2.1c1.1,0,2.1,0.9,2.1,2.1C60.1,33,59.2,33.9,58.1,33.9z"/>
	</g>
	<rect id="XMLID_247_" x="6" y="3" class="st6" width="4.8" height="54"/>
</g>
<g id="XMLID_460_" class="st0">
	<rect id="XMLID_452_" x="6" y="3" class="st1" width="4.8" height="54"/>
	<g id="XMLID_442_" class="st3">
		<circle id="XMLID_451_" class="st7" cx="49.1" cy="30" r="14.9"/>
		<g id="XMLID_443_">
			<path id="XMLID_450_" class="st8" d="M54.7,34.5h-6.4l0.2-0.2c0.3-0.3,0.3-0.8,0-1.1l-0.8-0.8c-0.2-0.2-0.5-0.3-0.8-0.2l-2.7,1.1
				v4.9h8.3c0.2,0,0.4-0.1,0.5-0.2l2.3-2.3c0.2-0.2,0.3-0.5,0.2-0.8C55.3,34.7,55,34.5,54.7,34.5z"/>
			<path id="XMLID_449_" class="st8" d="M42.7,32.3h-1.5c-0.4,0-0.8,0.3-0.8,0.8v5.3c0,0.4,0.3,0.8,0.8,0.8h1.5
				c0.4,0,0.8-0.3,0.8-0.8V33C43.5,32.6,43.1,32.3,42.7,32.3z"/>
			<path id="XMLID_444_" class="st8" d="M56.2,21H51c-0.8,0-1.5,0.7-1.5,1.5v6.8c0,0.8,0.7,1.5,1.5,1.5h5.3c0.8,0,1.5-0.7,1.5-1.5
				v-6.8C57.7,21.7,57,21,56.2,21z M51,23.3h3V24h-3V23.3z M55.5,28.5H51v-0.8h4.5V28.5z M55.5,26.3H51v-0.8h4.5V26.3z"/>
		</g>
	</g>
</g>
<g id="XMLID_459_" class="st0">
	<rect id="XMLID_441_" x="6" y="3" class="st1" width="4.8" height="54"/>
	<g id="XMLID_435_" class="st3">
		<circle id="XMLID_440_" class="st7" cx="49.1" cy="30" r="14.9"/>
		<g id="XMLID_436_">
			<path id="XMLID_439_" class="st8" d="M56.6,21h-3v4.5L51.3,24l-2.3,1.5V21h-3c-0.8,0-1.5,0.7-1.5,1.5v9l3-0.8l2.3,2.3h6.8
				c0.8,0,1.5-0.7,1.5-1.5v-9C58.1,21.7,57.4,21,56.6,21z"/>
			<path id="XMLID_438_" class="st8" d="M54.3,34.5h-6.4l0.2-0.2c0.3-0.3,0.3-0.8,0-1.1l-0.8-0.8c-0.2-0.2-0.5-0.3-0.8-0.2l-2.7,1.1
				v4.9h8.3c0.2,0,0.4-0.1,0.5-0.2l2.3-2.3c0.2-0.2,0.3-0.5,0.2-0.8C54.9,34.7,54.6,34.5,54.3,34.5z"/>
			<path id="XMLID_437_" class="st8" d="M42.3,32.3h-1.5c-0.4,0-0.8,0.3-0.8,0.8v5.3c0,0.4,0.3,0.8,0.8,0.8h1.5
				c0.4,0,0.8-0.3,0.8-0.8V33C43.1,32.6,42.7,32.3,42.3,32.3z"/>
		</g>
	</g>
</g>
<g id="XMLID_458_" class="st0">
	<rect id="XMLID_434_" x="6" y="3" class="st1" width="4.8" height="54"/>
	<g id="XMLID_424_" class="st3">
		<circle id="XMLID_433_" class="st7" cx="49.1" cy="30" r="14.9"/>
		<g id="XMLID_425_">
			<path id="XMLID_427_" class="st8" d="M56.6,24.6h-2.9l-1.7-1.8c0,0,0,0,0,0l0,0l0,0c-0.3-0.3-0.6-0.4-1-0.4h-3.6
				c-0.4,0-0.8,0.2-1.1,0.5v0l-1.7,1.7h-3c-0.8,0-1.4,0.6-1.4,1.4v8.7c0,0.8,0.6,1.4,1.4,1.4h15c0.8,0,1.4-0.6,1.4-1.4V26
				C58,25.2,57.4,24.6,56.6,24.6z M49.1,33.9c-2.2,0-4-1.8-4-4c0-2.2,1.8-4,4-4c2.2,0,4,1.8,4,4C53,32.2,51.3,33.9,49.1,33.9z
				 M56.3,26.9c-0.3,0-0.6-0.3-0.6-0.6c0-0.3,0.3-0.6,0.6-0.6c0.3,0,0.6,0.3,0.6,0.6C56.9,26.6,56.6,26.9,56.3,26.9z"/>
			<path id="XMLID_426_" class="st8" d="M49.1,27c-1.7,0-3,1.3-3,3c0,1.7,1.3,3,3,3c1.7,0,3-1.3,3-3C52.1,28.3,50.7,27,49.1,27z"/>
		</g>
	</g>
</g>
<g id="XMLID_457_" class="st0">
	<rect id="XMLID_423_" x="6" y="3" class="st1" width="4.8" height="54"/>
	<g id="XMLID_417_" class="st3">
		<circle id="XMLID_422_" class="st7" cx="49.1" cy="30" r="14.9"/>
		<g id="XMLID_418_">
			<path id="XMLID_421_" class="st8" d="M53.1,19.3c-1,0-1.9,0.8-1.9,1.9v11.2h1.2v1.1v0.7v5.3c0,0.6,0.5,1.1,1.1,1.1
				s1.1-0.5,1.1-1.1v-5.3v-0.7v-1.1v-13H53.1z"/>
			<path id="XMLID_419_" class="st8" d="M48.3,19.4c-0.2,0-0.4,0.2-0.4,0.4v4V24v0.4h-0.6V24v-0.2v-4c0-0.2-0.2-0.4-0.4-0.4
				c-0.2,0-0.4,0.2-0.4,0.4v4V24v0.4h-0.6V24v-0.2v-4c0-0.2-0.2-0.4-0.4-0.4c-0.2,0-0.4,0.2-0.4,0.4v4V24v0.4h-0.6V24v-0.2v-4
				c0-0.2-0.2-0.4-0.4-0.4c-0.2,0-0.4,0.2-0.4,0.4v4V24v0.4v1.6c0,0.9,0.7,1.6,1.6,1.6H45v1.1v0.6v10c0,0.6,0.5,1.1,1.1,1.1
				c0.6,0,1.1-0.5,1.1-1.1v-10v-0.6v-1.1h-0.1c0.9,0,1.6-0.7,1.6-1.6v-1.6V24v-0.2v-4C48.7,19.6,48.5,19.4,48.3,19.4z"/>
		</g>
	</g>
</g>
<g id="XMLID_456_" class="st0">
	<rect id="XMLID_416_" x="6" y="3" class="st1" width="4.8" height="54"/>
	<g id="XMLID_410_" class="st3">
		<circle id="XMLID_415_" class="st7" cx="49.1" cy="30" r="14.9"/>
		<path id="XMLID_411_" class="st8" d="M41.7,22.6c-1.3,0-2.3,1-2.3,2.3s1,2.3,2.3,2.3s2.3-1,2.3-2.3S42.9,22.6,41.7,22.6z
			 M45.1,24.9c0,1.9-1.5,3.4-3.4,3.4H40c-0.3,0-0.6,0-0.6,0.6c0,0.2,0,0.7,0,1.1c0,0.6,0.4,0.6,0.6,0.6h18.8v-2.3
			c0-1.1,0-3.4-5.7-3.4H45.1L45.1,24.9z M40.5,31.7c-0.6,0-1.1,0.6-1.1,1.1c0,1.1,0,2.4,0,3.4c0,0.6,0.6,1.1,1.1,1.1
			s1.1-0.6,1.1-1.1V34h14.8v2.3c0,0.6,0.6,1.1,1.1,1.1s1.1-0.6,1.1-1.1v-3.4c0-0.6-0.6-1.1-1.1-1.1H40.5z"/>
	</g>
</g>
</svg>
