<?xml version="1.0" encoding="utf-8"?>
<!-- Generator: Adobe Illustrator 19.0.0, SVG Export Plug-In . SVG Version: 6.00 Build 0)  -->
<svg version="1.1" id="Capa_1" xmlns="http://www.w3.org/2000/svg" xmlns:xlink="http://www.w3.org/1999/xlink" x="0px" y="0px"
	 viewBox="0 0 26 15" style="enable-background:new 0 0 26 15;" xml:space="preserve">
<style type="text/css">
	.st0{display:none;}
	.st1{display:inline;fill:#095495;}
	.st2{display:inline;fill:#777777;}
	.st3{display:inline;}
	.st4{fill:#3FAC58;}
	.st5{display:inline;fill:#3FAC58;}
	.st6{fill:#DAD355;}
	.st7{fill:#095495;}
	.st8{fill:#FFFFFF;}
	.st9{display:inline;fill:#2486C8;}
	.st10{fill:#2486C8;}
</style>
<g id="XMLID_230_" class="st0">
	<path id="XMLID_402_" class="st1" d="M-75.7-25.2c-1.3-2.8-6.5-4-11.7-4s-10.4,1.2-11.7,4c-0.9,1-1.4,7.3-1.4,11.7v11.6
		c0,0.6,0.5,1.1,1.1,1.1h1.1v1.4v0.7v0.5c0,0.8,0.6,1.4,1.4,1.4h1.3c0.8,0,1.4-0.6,1.4-1.4V1.3V0.6v-1.4h6.9h6.9v1.4v0.7v0.5
		c0,0.8,0.6,1.4,1.4,1.4h1.3c0.8,0,1.4-0.6,1.4-1.4V1.3V0.6v-1.4h1.1c0.6,0,1.1-0.5,1.1-1.1v-11.6C-74.3-17.9-74.8-24.1-75.7-25.2z
		 M-92.7-26.7h2.9h1.5h0.8h0.8h1.5h2.9c0.5,0,0.8,0.4,0.8,0.8c0,0.5-0.4,0.8-0.8,0.8h-2.9h-1.5h-0.8h-0.8h-1.5h-2.9
		c-0.5,0-0.8-0.4-0.8-0.8C-93.5-26.3-93.1-26.7-92.7-26.7z M-96.4-4.9c-1.1,0-2-0.9-2-2s0.9-2,2-2c1.1,0,2,0.9,2,2
		S-95.3-4.9-96.4-4.9z M-87.5-13.6h-9.3c-0.9,0-1.6-0.8-1.5-1.7l0.5-6.8c0.1-0.8,0.7-1.4,1.5-1.4h8.8h8.8c0.8,0,1.5,0.6,1.5,1.4
		l0.5,6.8c0.1,0.9-0.6,1.7-1.5,1.7H-87.5z M-78.6-4.9c-1.1,0-2-0.9-2-2s0.9-2,2-2c1.1,0,2,0.9,2,2S-77.4-4.9-78.6-4.9z"/>
	<rect id="XMLID_401_" x="-130.5" y="-40" class="st1" width="4.8" height="54"/>
</g>
<g id="XMLID_453_" class="st0">
	<path id="XMLID_342_" class="st2" d="M-75.7-25.2c-1.3-2.8-6.5-4-11.7-4s-10.4,1.2-11.7,4c-0.9,1-1.4,7.3-1.4,11.7v11.6
		c0,0.6,0.5,1.1,1.1,1.1h1.1v1.4v0.7v0.5c0,0.8,0.6,1.4,1.4,1.4h1.3c0.8,0,1.4-0.6,1.4-1.4V1.3V0.6v-1.4h6.9h6.9v1.4v0.7v0.5
		c0,0.8,0.6,1.4,1.4,1.4h1.3c0.8,0,1.4-0.6,1.4-1.4V1.3V0.6v-1.4h1.1c0.6,0,1.1-0.5,1.1-1.1v-11.6C-74.3-17.9-74.8-24.1-75.7-25.2z
		 M-92.7-26.7h2.9h1.5h0.8h0.8h1.5h2.9c0.5,0,0.8,0.4,0.8,0.8s-0.4,0.8-0.8,0.8h-2.9h-1.5h-0.8h-0.8h-1.5h-2.9
		c-0.5,0-0.8-0.4-0.8-0.8S-93.1-26.7-92.7-26.7z M-96.4-4.9c-1.1,0-2-0.9-2-2s0.9-2,2-2c1.1,0,2,0.9,2,2S-95.3-4.9-96.4-4.9z
		 M-87.5-13.6h-9.3c-0.9,0-1.6-0.8-1.5-1.7l0.5-6.8c0.1-0.8,0.7-1.4,1.5-1.4h8.8h8.8c0.8,0,1.5,0.6,1.5,1.4l0.5,6.8
		c0.1,0.9-0.6,1.7-1.5,1.7H-87.5z M-78.5-4.9c-1.1,0-2-0.9-2-2s0.9-2,2-2c1.1,0,2,0.9,2,2S-77.4-4.9-78.5-4.9z"/>
	<rect id="XMLID_341_" x="-130.5" y="-40" class="st2" width="4.8" height="54"/>
</g>
<g id="XMLID_454_" class="st0">
	<g id="XMLID_325_" class="st3">
		<path id="XMLID_326_" class="st4" d="M-79.8-26.2h-0.5h-1.9h-2.3c0-1.7-1.3-3-3-3c-1.7,0-3,1.3-3,3h-2.3h-1.9h-0.5
			c-2.9,0-5.3,2.4-5.3,5.3v18.9c0,2.9,2.4,5.3,5.3,5.3h0.5h1.9h5.3h5.3h1.9h0.5c2.9,0,5.3-2.4,5.3-5.3V-21
			C-74.5-23.9-76.8-26.2-79.8-26.2z M-96.5-2.8c-1.1,0-2-0.9-2-2s0.9-2,2-2c1.1,0,2,0.9,2,2S-95.4-2.8-96.5-2.8z M-88.1-14.6
			c0,1.1-0.9,2-2,2h-6.2c-1.1,0-2-0.9-2-2v-4.6c0-1.1,0.9-2,2-2h6.2c1.1,0,2,0.9,2,2V-14.6z M-88.3-22.6h-1.5h-2.9
			c-0.5,0-0.8-0.4-0.8-0.8s0.4-0.8,0.8-0.8h2.9h1.5h0.8h0.8h1.5h2.9c0.5,0,0.8,0.4,0.8,0.8s-0.4,0.8-0.8,0.8h-2.9h-1.5h-0.8H-88.3z
			 M-84.8-12.6c-1.1,0-2-0.9-2-2v-4.6c0-1.1,0.9-2,2-2h6.2c1.1,0,2,0.9,2,2v4.6c0,1.1-0.9,2-2,2H-84.8z M-78.4-2.8c-1.1,0-2-0.9-2-2
			s0.9-2,2-2s2,0.9,2,2S-77.3-2.8-78.4-2.8z"/>
	</g>
	<rect id="XMLID_324_" x="-130.5" y="-40" class="st5" width="4.8" height="54"/>
</g>
<g id="XMLID_455_">
	<g id="XMLID_273_">
		<path id="XMLID_287_" class="st6" d="M-75.4-15.2h-0.9l-2.2-5.7c-0.4-1.1-1.5-1.9-2.7-1.9h-3.4v-1.6c0-0.4-0.3-0.7-0.7-0.7h-1.9
			h-1.9c-0.4,0-0.7,0.3-0.7,0.7v1.6h-3.4c-1.2,0-2.3,0.7-2.7,1.9l-2.2,5.7h-0.9c-0.8,0-1.5,0.7-1.5,1.5v7.3c0,0.8,0.7,1.5,1.5,1.5
			h0.9v1.4v0.6v0.6c0,0.7,0.6,1.4,1.4,1.4h1.4c0.7,0,1.4-0.6,1.4-1.4v-0.6v-0.6v-1.4h0.2h5.2h1.5h1.5h5.2h0.2v1.4v0.6v0.6
			c0,0.7,0.6,1.4,1.4,1.4h1.4c0.7,0,1.4-0.6,1.4-1.4v-0.6v-0.6v-1.4h0.9c0.8,0,1.5-0.7,1.5-1.5v-7.3C-73.9-14.5-74.6-15.2-75.4-15.2
			z M-96.5-9.1c-1.1,0-2.1-0.9-2.1-2.1c0-1.1,0.9-2.1,2.1-2.1c1.1,0,2.1,0.9,2.1,2.1C-94.4-10-95.4-9.1-96.5-9.1z M-87.5-15.2h-7.9
			c-0.6,0-1-0.6-0.8-1.1l1.3-3.5c0.2-0.6,0.7-0.9,1.3-0.9h6.1h6.1c0.6,0,1.1,0.4,1.3,0.9l1.3,3.5c0.2,0.5-0.2,1.1-0.8,1.1H-87.5z
			 M-78.4-9.1c-1.1,0-2.1-0.9-2.1-2.1c0-1.1,0.9-2.1,2.1-2.1c1.1,0,2.1,0.9,2.1,2.1C-76.4-10-77.3-9.1-78.4-9.1z"/>
	</g>
	<rect id="XMLID_247_" x="-130.5" y="-40" class="st6" width="4.8" height="54"/>
</g>
<g id="XMLID_460_" class="st0">
	<rect id="XMLID_452_" x="-130.5" y="-40" class="st1" width="4.8" height="54"/>
	<g id="XMLID_442_" class="st3">
		<circle id="XMLID_451_" class="st7" cx="-87.4" cy="-13" r="14.9"/>
		<g id="XMLID_443_">
			<path id="XMLID_450_" class="st8" d="M-81.8-8.5h-6.4l0.2-0.2c0.3-0.3,0.3-0.8,0-1.1l-0.8-0.8c-0.2-0.2-0.5-0.3-0.8-0.2l-2.7,1.1
				v4.9h8.3c0.2,0,0.4-0.1,0.5-0.2l2.3-2.3C-81-7.4-81-7.8-81.1-8C-81.2-8.3-81.5-8.5-81.8-8.5z"/>
			<path id="XMLID_449_" class="st8" d="M-93.8-10.7h-1.5c-0.4,0-0.8,0.3-0.8,0.8v5.3c0,0.4,0.3,0.7,0.8,0.7h1.5
				c0.4,0,0.8-0.3,0.8-0.7V-10C-93-10.4-93.4-10.7-93.8-10.7z"/>
			<path id="XMLID_444_" class="st8" d="M-80.3-22h-5.3c-0.8,0-1.5,0.7-1.5,1.5v6.8c0,0.8,0.7,1.5,1.5,1.5h5.3
				c0.8,0,1.5-0.7,1.5-1.5v-6.8C-78.8-21.3-79.5-22-80.3-22z M-85.5-19.8h3v0.8h-3V-19.8z M-81-14.5h-4.5v-0.8h4.5V-14.5z M-81-16.8
				h-4.5v-0.8h4.5V-16.8z"/>
		</g>
	</g>
</g>
<g id="XMLID_459_" class="st0">
	<rect id="XMLID_441_" x="-130.5" y="-40" class="st1" width="4.8" height="54"/>
	<g id="XMLID_435_" class="st3">
		<circle id="XMLID_440_" class="st7" cx="-87.4" cy="-13" r="14.9"/>
		<g id="XMLID_436_">
			<path id="XMLID_439_" class="st8" d="M-79.9-22h-3v4.5l-2.3-1.5l-2.3,1.5V-22h-3c-0.8,0-1.5,0.7-1.5,1.5v9l3-0.8l2.3,2.3h6.8
				c0.8,0,1.5-0.7,1.5-1.5v-9C-78.4-21.3-79.1-22-79.9-22z"/>
			<path id="XMLID_438_" class="st8" d="M-82.2-8.5h-6.4l0.2-0.2c0.3-0.3,0.3-0.8,0-1.1l-0.8-0.8c-0.2-0.2-0.5-0.3-0.8-0.2l-2.7,1.1
				v4.9h8.3c0.2,0,0.4-0.1,0.5-0.2l2.3-2.3c0.2-0.2,0.3-0.5,0.2-0.8C-81.6-8.3-81.9-8.5-82.2-8.5z"/>
			<path id="XMLID_437_" class="st8" d="M-94.2-10.8h-1.5c-0.4,0-0.8,0.3-0.8,0.8v5.2c0,0.4,0.3,0.8,0.8,0.8h1.5
				c0.4,0,0.8-0.3,0.8-0.8V-10C-93.4-10.4-93.7-10.8-94.2-10.8z"/>
		</g>
	</g>
</g>
<g id="XMLID_458_" class="st0">
	<rect id="XMLID_434_" x="-130.5" y="-40" class="st1" width="4.8" height="54"/>
	<g id="XMLID_424_" class="st3">
		<circle id="XMLID_433_" class="st7" cx="-87.4" cy="-13" r="14.9"/>
		<g id="XMLID_425_">
			<path id="XMLID_427_" class="st8" d="M-79.9-18.4h-2.9l-1.7-1.8c0,0,0,0,0,0l0,0l0,0c-0.3-0.3-0.6-0.4-1-0.4h-3.6
				c-0.4,0-0.8,0.2-1.1,0.5v0l-1.7,1.7h-3c-0.8,0-1.4,0.6-1.4,1.4v8.7c0,0.8,0.6,1.4,1.4,1.4h15c0.8,0,1.4-0.6,1.4-1.4V-17
				C-78.5-17.8-79.1-18.4-79.9-18.4z M-87.4-9.1c-2.2,0-4-1.8-4-4c0-2.2,1.8-4,4-4c2.2,0,4,1.8,4,4C-83.4-10.8-85.2-9.1-87.4-9.1z
				 M-80.2-16.1c-0.3,0-0.6-0.3-0.6-0.6s0.3-0.6,0.6-0.6c0.3,0,0.6,0.3,0.6,0.6S-79.9-16.1-80.2-16.1z"/>
			<path id="XMLID_426_" class="st8" d="M-87.4-16c-1.7,0-3,1.3-3,3c0,1.7,1.3,3,3,3c1.7,0,3-1.3,3-3S-85.8-16-87.4-16z"/>
		</g>
	</g>
</g>
<g id="XMLID_457_" class="st0">
	<rect id="XMLID_423_" x="-130.5" y="-40" class="st1" width="4.8" height="54"/>
	<g id="XMLID_417_" class="st3">
		<circle id="XMLID_422_" class="st7" cx="-87.4" cy="-13" r="14.9"/>
		<g id="XMLID_418_">
			<path id="XMLID_421_" class="st8" d="M-83.4-23.7c-1,0-1.9,0.8-1.9,1.9v11.2h1.2v1.1v0.7v5.3c0,0.6,0.5,1.1,1.1,1.1
				s1.1-0.5,1.1-1.1v-5.3v-0.7v-1.1v-13H-83.4z"/>
			<path id="XMLID_419_" class="st8" d="M-88.2-23.6c-0.2,0-0.4,0.2-0.4,0.4v4v0.2v0.4h-0.6V-19v-0.2v-4c0-0.2-0.2-0.4-0.4-0.4
				c-0.2,0-0.4,0.2-0.4,0.4v4v0.2v0.4h-0.6V-19v-0.2v-4c0-0.2-0.2-0.4-0.4-0.4c-0.2,0-0.4,0.2-0.4,0.4v4v0.2v0.4h-0.6V-19v-0.2v-4
				c0-0.2-0.2-0.4-0.4-0.4c-0.2,0-0.4,0.2-0.4,0.4v4v0.2v0.4v1.6c0,0.9,0.7,1.6,1.6,1.6h-0.1v1.1v0.6v10c0,0.6,0.5,1.1,1.1,1.1
				c0.6,0,1.1-0.5,1.1-1.1v-10v-0.6v-1.1h-0.1c0.9,0,1.6-0.7,1.6-1.6v-1.6V-19v-0.2v-4C-87.8-23.4-88-23.6-88.2-23.6z"/>
		</g>
	</g>
</g>
<g id="XMLID_456_" class="st0">
	<rect id="XMLID_416_" x="-130.5" y="-40" class="st1" width="4.8" height="54"/>
	<g id="XMLID_410_" class="st3">
		<circle id="XMLID_415_" class="st7" cx="-87.4" cy="-13" r="14.9"/>
		<path id="XMLID_411_" class="st8" d="M-94.8-20.4c-1.3,0-2.3,1-2.3,2.3s1,2.3,2.3,2.3s2.3-1,2.3-2.3S-93.6-20.4-94.8-20.4z
			 M-91.4-18.1c0,1.9-1.5,3.4-3.4,3.4h-1.7c-0.3,0-0.6,0-0.6,0.6c0,0.2,0,0.7,0,1.1c0,0.6,0.4,0.6,0.6,0.6h18.8v-2.3
			c0-1.1,0-3.4-5.7-3.4H-91.4L-91.4-18.1z M-95.9-11.3c-0.6,0-1.1,0.6-1.1,1.1c0,1.1,0,2.4,0,3.4c0,0.6,0.6,1.1,1.1,1.1
			s1.1-0.6,1.1-1.1V-9H-80v2.3c0,0.6,0.6,1.1,1.1,1.1s1.1-0.6,1.1-1.1v-3.4c0-0.6-0.6-1.1-1.1-1.1H-95.9z"/>
	</g>
</g>
<g id="XMLID_102_" class="st0">
	<path id="XMLID_192_" class="st1" d="M20.1,11.8H7.9c-2.4,0-4.3-1.9-4.3-4.3v0c0-2.4,1.9-4.3,4.3-4.3h12.2c2.4,0,4.3,1.9,4.3,4.3v0
		C24.4,9.9,22.5,11.8,20.1,11.8z"/>
	<circle id="XMLID_174_" class="st9" cx="7.8" cy="7.5" r="6.2"/>
</g>
<g id="XMLID_10530_">
	<path id="XMLID_10532_" class="st10" d="M5.9,11.8h12.2c2.4,0,4.3-1.9,4.3-4.3v0c0-2.4-1.9-4.3-4.3-4.3H5.9c-2.4,0-4.3,1.9-4.3,4.3
		v0C1.6,9.9,3.5,11.8,5.9,11.8z"/>
	<circle id="XMLID_10531_" class="st7" cx="18.2" cy="7.5" r="6.2"/>
</g>
</svg>
